<svg id="Layer_1" data-name="Layer 1" xmlns="http://www.w3.org/2000/svg" viewBox="0 0 30 30.02"><path d="M30,15c0,2.11,0,4.22,0,6.32a8.37,8.37,0,0,1-5.23,7.89A9.56,9.56,0,0,1,21,30c-4.07,0-8.14.06-12.21,0a8.9,8.9,0,0,1-7.4-3.87A7.54,7.54,0,0,1,0,21.6V8.6A8.14,8.14,0,0,1,4.78,1,9.19,9.19,0,0,1,9.06,0C13,0,17,0,20.92,0a9.11,9.11,0,0,1,7.51,3.66A7.6,7.6,0,0,1,30,8.37ZM2.23,15v6.65A5.23,5.23,0,0,0,3,24.4a6.7,6.7,0,0,0,5.92,3.32c4.06.06,8.12,0,12.18,0a6.6,6.6,0,0,0,2.87-.63,6,6,0,0,0,3.81-5.85c0-4.29,0-8.58,0-12.88a5.45,5.45,0,0,0-1.07-3.3,6.74,6.74,0,0,0-5.61-2.83c-4.05-.05-8.1,0-12.15,0a7.17,7.17,0,0,0-2.51.48,6.21,6.21,0,0,0-4.2,6C2.29,10.81,2.23,12.9,2.23,15Z" transform="translate(0 0.02)"/><path d="M15,21.39a7,7,0,1,1,7-7A7,7,0,0,1,15,21.39Zm0-2.24a4.72,4.72,0,1,0-4.82-4.72A4.77,4.77,0,0,0,15,19.15Z" transform="translate(0 0.02)"/><path d="M22.88,5.37a1.54,1.54,0,0,1,0,3.08,1.5,1.5,0,0,1-1.46-1.53A1.5,1.5,0,0,1,22.88,5.37Z" transform="translate(0 0.02)"/></svg>